# xmcd
#
# Track frame offsets:
#	150
#	11923
#	23443
#	34162
#	43733
#	55584
#	67471
#	78810
#	91514
#	101291
#	112531
#	124912
#	136500
#	146665
#	156330
#	167506
#	178045
#	188454
#	198867
#	210985
#
# Disc length: 2970 seconds
#
# Revision: 1
# Processed by: cddbd v1.5.2PL0 Copyright (c) Steve Scherf et al.
# Submitted via: audiograbber 1.83.01
#
DISCID=f20b9814
DTITLE=Moe Bandy and Joe Stampley - Just Good Ol' Boys And Hey Joe! Hey Moe!
DYEAR=1900
DGENRE=
TTITLE0=Just Good Ol Boys
TTITLE1=Make a Little Love Each Day
TTITLE2=Tell Ole I ain't Here
TTITLE3=Honky Tonk Man
TTITLE4=Partners In Ryme
TTITLE5=Holding the Bag
TTITLE6=Bye Bye Love
TTITLE7=Only the Names Have Canged
TTITLE8=When It Comes to Cowgirls
TTITLE9=Thank Goodness Its Friday
TTITLE10=Honky Tonk Queen
TTITLE11=The Girl Don't ever Get Lonely
TTITLE12=I'd Rather Be A Pickin
TTITLE13=Drinkin Dancin
TTITLE14=Drunk Front
TTITLE15=Hey Joe
TTITLE16=Country Boys
TTITLE17=Lets Here it for the Working Man
TTITLE18=Get Off My Case
TTITLE19=Two Beers Away
EXTD=
EXTT0=
EXTT1=
EXTT2=
EXTT3=
EXTT4=
EXTT5=
EXTT6=
EXTT7=
EXTT8=
EXTT9=
EXTT10=
EXTT11=
EXTT12=
EXTT13=
EXTT14=
EXTT15=
EXTT16=
EXTT17=
EXTT18=
EXTT19=
PLAYORDER=
